<svg width="1200" height="960" viewBox="0 0 1200 960" fill="none" xmlns="http://www.w3.org/2000/svg">
  <rect width="1200" height="960" rx="40" fill="#0F1016"/>
  <rect x="32" y="32" width="1136" height="896" rx="28" fill="#151824" stroke="#282D42" stroke-width="8"/>
  <rect x="84" y="84" width="1032" height="88" rx="24" fill="#191D2C"/>
  <text x="116" y="140" fill="#8B7CFF" font-family="Arial, sans-serif" font-size="34" font-weight="700" letter-spacing="4">CERTIFIED SKILL TRACK</text>
  <text x="116" y="250" fill="#F8F7FF" font-family="Arial, sans-serif" font-size="74" font-weight="700">Backend API</text>
  <text x="116" y="336" fill="#F8F7FF" font-family="Arial, sans-serif" font-size="74" font-weight="700">Engineering</text>
  <text x="116" y="430" fill="#A29ABB" font-family="Arial, sans-serif" font-size="28">Recognized for mastering API design, service architecture,</text>
  <text x="116" y="474" fill="#A29ABB" font-family="Arial, sans-serif" font-size="28">authentication, database modeling, and production workflows.</text>
  <rect x="116" y="566" width="908" height="180" rx="28" fill="#10131D" stroke="#262B3E"/>
  <rect x="150" y="600" width="300" height="18" rx="9" fill="#8B7CFF"/>
  <rect x="150" y="640" width="240" height="18" rx="9" fill="#434A67"/>
  <rect x="150" y="680" width="420" height="18" rx="9" fill="#31384F"/>
  <rect x="792" y="598" width="180" height="116" rx="24" fill="#6F5BF3"/>
  <text x="830" y="642" fill="#F8F7FF" font-family="Arial, sans-serif" font-size="24" font-weight="700">Issued</text>
  <text x="828" y="692" fill="#FFFFFF" font-family="Arial, sans-serif" font-size="40" font-weight="700">2025</text>
  <circle cx="1034" cy="654" r="64" fill="#19C6EA"/>
  <path d="M1010 654H1058" stroke="#10131D" stroke-width="14" stroke-linecap="round"/>
  <path d="M1034 630V678" stroke="#10131D" stroke-width="14" stroke-linecap="round"/>
  <text x="116" y="828" fill="#8B7CFF" font-family="Arial, sans-serif" font-size="26" font-weight="700">Recipient: Akbar Rayyan</text>
</svg>
