<svg width="1200" height="960" viewBox="0 0 1200 960" fill="none" xmlns="http://www.w3.org/2000/svg">
  <rect width="1200" height="960" rx="40" fill="#FCFAFF"/>
  <rect x="36" y="36" width="1128" height="888" rx="30" fill="#FFFDFE" stroke="#E7DFFF" stroke-width="8"/>
  <rect x="80" y="80" width="1040" height="300" rx="36" fill="#6F5BF3"/>
  <circle cx="182" cy="182" r="66" fill="#FFFFFF" fill-opacity="0.14"/>
  <circle cx="1020" cy="280" r="96" fill="#FFFFFF" fill-opacity="0.12"/>
  <text x="116" y="154" fill="#F3F0FF" font-family="Arial, sans-serif" font-size="32" font-weight="700" letter-spacing="4">CREATIVE CERTIFICATE</text>
  <text x="116" y="248" fill="#FFFFFF" font-family="Arial, sans-serif" font-size="78" font-weight="700">UI/UX &amp; Product</text>
  <text x="116" y="336" fill="#FFFFFF" font-family="Arial, sans-serif" font-size="78" font-weight="700">Thinking</text>
  <text x="92" y="466" fill="#241A4A" font-family="Arial, sans-serif" font-size="30">Acknowledges achievement in design thinking, user flows,</text>
  <text x="92" y="512" fill="#241A4A" font-family="Arial, sans-serif" font-size="30">interface systems, and product-centered decision making.</text>
  <rect x="92" y="592" width="1016" height="168" rx="28" fill="#F7F3FF" stroke="#E5DEFF"/>
  <rect x="124" y="624" width="430" height="18" rx="9" fill="#6F5BF3"/>
  <rect x="124" y="664" width="330" height="18" rx="9" fill="#CFC4FF"/>
  <rect x="124" y="704" width="520" height="18" rx="9" fill="#DED6FF"/>
  <rect x="836" y="620" width="228" height="108" rx="24" fill="#FFFFFF" stroke="#DACEFF"/>
  <text x="870" y="664" fill="#6F5BF3" font-family="Arial, sans-serif" font-size="24" font-weight="700">Year</text>
  <text x="870" y="708" fill="#241A4A" font-family="Arial, sans-serif" font-size="38" font-weight="700">2024</text>
  <text x="92" y="836" fill="#6F5BF3" font-family="Arial, sans-serif" font-size="26" font-weight="700">Issued to: Akbar Rayyan</text>
</svg>
